<?xml version="1.0"?><svg width="897.35931" height="984.2865599999999" xmlns="http://www.w3.org/2000/svg" xmlns:xlink="http://www.w3.org/1999/xlink">
 <title>spaceship</title>
 <defs>
  <linearGradient id="linearGradient14839">
   <stop offset="0" id="stop14841" stop-color="#5b5757"/>
   <stop offset="1" id="stop14843" stop-color="black"/>
  </linearGradient>
  <linearGradient id="linearGradient7199">
   <stop offset="0" id="stop7201" stop-color="#b0c2c9"/>
   <stop offset="1" id="stop7203" stop-color="white"/>
  </linearGradient>
  <linearGradient id="linearGradient4534">
   <stop offset="0" id="stop4536" stop-color="#c4c9f5"/>
   <stop offset="1" id="stop4538" stop-color="#436697"/>
  </linearGradient>
  <radialGradient xlink:href="#linearGradient4534" id="radialGradient13481" gradientUnits="userSpaceOnUse" gradientTransform="matrix(1.61879, 0.0143899, -0.0163374, 1.83788, -47.0338, -1023.18)" cx="328.37256" cy="531.05719" fx="328.37256" fy="531.05719" r="198.55791"/>
  <linearGradient xlink:href="#linearGradient7199" id="linearGradient13483" x1="-0.003014" y1="0.5" x2="1.003017" y2="0.5"/>
  <linearGradient xlink:href="#linearGradient4534" id="linearGradient13491" x1="0.141464" y1="0.428568" x2="1.001385" y2="0.428568"/>
  <linearGradient id="linearGradient2760">
   <stop id="stop2762" offset="0" stop-color="#ffdf00"/>
   <stop offset="0.391892" id="stop2770" stop-color="#ffaf3f"/>
   <stop offset="1" id="stop2768" stop-color="#ee0a0a"/>
  </linearGradient>
  <linearGradient id="linearGradient2776">
   <stop id="stop2778" offset="0" stop-color="#6c81a9"/>
   <stop id="stop2780" offset="1" stop-color="white"/>
  </linearGradient>
  <radialGradient xlink:href="#linearGradient2760" id="radialGradient13944" gradientUnits="userSpaceOnUse" gradientTransform="matrix(0.0897076, -0.720875, 0.341872, -0.0717926, 217.508, 1013.49)" cx="417.36252" cy="572.17078" fx="417.36252" fy="572.17078" r="300.08646"/>
  <radialGradient xlink:href="#linearGradient2776" id="radialGradient13946" gradientUnits="userSpaceOnUse" gradientTransform="matrix(-0.111552, -0.147607, 0.16799, -0.0619805, 971.437, 1106.59)" cx="603.67999" cy="694.75159" fx="603.67999" fy="694.75159" r="300.08646"/>
  <radialGradient xlink:href="#linearGradient14839" id="radialGradient16631" gradientUnits="userSpaceOnUse" gradientTransform="matrix(-0.292792, -5.66078e-09, -1.34353e-07, -0.480552, 46.1156, 960.641)" cx="-399.05817" cy="65.044273" fx="-399.05817" fy="65.044273" r="146.73152"/>
  <radialGradient xlink:href="#linearGradient14839" id="radialGradient16633" gradientUnits="userSpaceOnUse" gradientTransform="matrix(1, 0, 0, 0.313461, 0, 424.992)" cx="-444.93253" cy="619.03656" fx="-444.93253" fy="619.03656" r="152.1581"/>
  <radialGradient xlink:href="#linearGradient14839" id="radialGradient16635" gradientUnits="userSpaceOnUse" gradientTransform="matrix(-0.292792, -5.66078e-09, -1.34353e-07, -0.480552, 231.666, 959.743)" cx="-399.05817" cy="65.044273" fx="-399.05817" fy="65.044273" r="146.73152"/>
  <radialGradient xlink:href="#linearGradient14839" id="radialGradient16637" gradientUnits="userSpaceOnUse" gradientTransform="matrix(1, 0, 0, 0.313461, 0, 424.992)" cx="-444.93253" cy="619.03656" fx="-444.93253" fy="619.03656" r="152.1581"/>
  <linearGradient xlink:href="#linearGradient4534" id="linearGradient16655" x1="0.858529" y1="0.42857" x2="-0.001392" y2="0.42857"/>
 </defs>
 <metadata id="metadata7">image/svg+xml</metadata>
 <g>
  <title>Layer 1</title>
  <path id="path1872" d="m384.915192,703.614014c31.604034,-135.180603 68.230011,113.199158 71.883728,48.608826c5.224731,-92.365234 74.830719,-118.559387 63.954681,-64.565613c-20.297241,69.736816 32.692078,4.967651 54.444519,-31.049194c21.752441,-36.016846 137.153442,-110.956421 -118.989807,-107.20636c-256.143219,3.750061 -102.523773,126.954407 -71.293121,154.212341z" stroke-miterlimit="4" stroke-width="0" stroke="url(#radialGradient13946)" fill-rule="evenodd" fill="url(#radialGradient13944)" opacity="0.99"/>
  <path d="m542.157654,261.363617c153.948059,53.222931 297.197571,228.03598 360,379.999969c-320.822815,-233.553314 -331.996216,-75.50415 -340,-100l-20,-279.999969z" id="path13506" stroke-miterlimit="4" stroke="black" fill-rule="evenodd" fill="url(#linearGradient16655)"/>
  <path d="m352.79834,258.45285c-153.948059,53.22287 -297.197571,228.035919 -360,379.999969c320.822845,-233.553375 331.996216,-75.50415 340,-99.999939l20,-280.000031z" id="path7223" stroke-miterlimit="4" stroke="black" fill-rule="evenodd" fill="url(#linearGradient13491)"/>
  <g id="g7207" transform="matrix(0.733795 0 0 0.733795 102.627 400.064)">
   <path id="path3645" d="m667.561218,-105.171143c35.309143,161.300503 -82.721558,362.341339 -201.428528,352.857086c-98.625061,-7.879761 -224.539246,-150.324837 -178.571472,-352.857086c38.822937,-171.052185 187.142883,-387.142822 187.142883,-387.142822c0,0 155.363037,215.860962 192.857117,387.142822z" stroke-miterlimit="4" stroke-linejoin="bevel" stroke="black" fill-rule="nonzero" fill="url(#radialGradient13481)" opacity="0.99"/>
   <path d="m558.71405,-203.742859a82.85714,128.571426 0 1 1 -165.714325,0a82.85714,128.571426 0 1 1 165.714325,0z" id="path6312" stroke-miterlimit="4" stroke-linejoin="bevel" stroke-width="16.9" stroke="#4d4e60" fill-rule="nonzero" fill="url(#linearGradient13483)" opacity="0.99"/>
  </g>
  <g id="g16627" transform="matrix(0.68357, 0, 0, 1, 340.281, -20.6346)">
   <path d="m154.341522,581.246765a61.711029,29.469481 0 1 1 -123.422071,0a61.711029,29.469481 0 1 1 123.422071,0z" id="path13952" stroke-dashoffset="0" stroke-miterlimit="4" stroke-linejoin="bevel" stroke-width="12.853147" stroke="url(#radialGradient16633)" fill-rule="nonzero" fill="url(#radialGradient16631)" opacity="0.99"/>
   <path d="m284.693542,580.722717a61.711029,29.469481 0 1 1 -123.422104,0a61.711029,29.469481 0 1 1 123.422104,0z" id="path16621" stroke-dashoffset="0" stroke-miterlimit="4" stroke-linejoin="bevel" stroke-width="12.853147" stroke="url(#radialGradient16637)" fill-rule="nonzero" fill="url(#radialGradient16635)" opacity="0.99"/>
  </g>
 </g>
</svg>